<svg width="48" height="27" viewBox="0 0 48 27" fill="none" xmlns="http://www.w3.org/2000/svg">
<path d="M43.0881 12.1872C42.5126 12.1914 41.9425 12.3012 41.4053 12.5114L35.665 7.7267C35.8062 7.20508 35.9067 6.66397 35.9067 6.09361C35.9067 2.71531 33.2401 0 29.9223 0C26.6045 0 23.9378 2.71531 23.9378 6.09361C23.9378 7.05884 24.1772 7.95825 24.565 8.76749L17.6015 17.1474C17.3227 17.0943 17.04 17.0658 16.7565 17.0621C16.328 17.0621 15.9234 17.1352 15.5309 17.2425L9.3956 10.9953C9.50332 10.598 9.57513 10.1861 9.57513 9.74977C9.57513 7.04909 7.43988 4.87489 4.78756 4.87489C2.13525 4.87489 0 7.04909 0 9.74977C0 12.4505 2.13525 14.6247 4.78756 14.6247C5.21605 14.6247 5.6206 14.5515 6.01318 14.4443L12.1484 20.6915C12.0334 21.0964 11.973 21.5154 11.9689 21.937C11.9689 24.6377 14.1042 26.8119 16.7565 26.8119C19.4088 26.8119 21.544 24.6377 21.544 21.937C21.544 21.3593 21.4291 20.8158 21.2496 20.3015L28.2227 11.9118C28.7661 12.0727 29.3286 12.1872 29.9223 12.1872C30.867 12.1819 31.7968 11.9471 32.6344 11.5023L38.3771 16.287C38.3321 16.543 38.3065 16.8021 38.3005 17.0621C38.3005 19.7628 40.4358 21.937 43.0881 21.937C45.7404 21.937 47.8756 19.7628 47.8756 17.0621C47.8756 14.3614 45.7404 12.1872 43.0881 12.1872Z" fill="#0D5C63"/>
</svg>
